<svg width="22" height="22" viewBox="0 0 22 22" fill="none" xmlns="http://www.w3.org/2000/svg">
<g clip-path="url(#clip0_12_1419)">
<path d="M6.88892 21.5556H8.6667V19.7778H6.88892V21.5556ZM10.4445 21.5556H12.2223V19.7778H10.4445V21.5556ZM11.3334 2C10.8445 2 10.4445 2.4 10.4445 2.88889V10C10.4445 10.4889 10.8445 10.8889 11.3334 10.8889C11.8223 10.8889 12.2223 10.4889 12.2223 10V2.88889C12.2223 2.4 11.8223 2 11.3334 2ZM14.8356 4.72L14.8178 4.73778C14.4534 5.10222 14.4978 5.69778 14.8889 6.03556C16.2311 7.22667 16.96 9.08444 16.56 11.1022C16.1511 13.1289 14.5245 14.7822 12.5067 15.2089C9.04892 15.9467 6.00003 13.3244 6.00003 10C6.00003 8.41778 6.69336 7.00444 7.7867 6.02667C8.16892 5.68 8.20447 5.10222 7.84892 4.73778L7.83114 4.72C7.50225 4.39111 6.97781 4.37333 6.62225 4.68444C4.83559 6.25778 3.84892 8.71111 4.3467 11.3689C4.87114 14.1689 7.11114 16.4356 9.91114 16.9778C14.4623 17.8578 18.4445 14.4 18.4445 10C18.4445 7.88444 17.5111 5.98222 16.0356 4.67556C15.6889 4.37333 15.1645 4.39111 14.8356 4.72ZM14 21.5556H15.7778V19.7778H14V21.5556Z" fill="#7E7BEC"/>
</g>
<defs>
<clipPath id="clip0_12_1419">
<rect width="21.3333" height="21.3333" fill="white" transform="translate(0.666687 0.222168)"/>
</clipPath>
</defs>
</svg>
