<svg width="19" height="18" viewBox="0 0 19 18" fill="none" xmlns="http://www.w3.org/2000/svg">
<path d="M17.6 6.75556L15.9111 6.22222L16.7111 4.62222C16.8889 4.26667 16.8 3.82222 16.5333 3.55556L14.6667 1.68889C14.4 1.42222 13.9556 1.33333 13.6 1.51111L12 2.31111L11.4667 0.622222C11.3778 0.266667 11.0222 0 10.6667 0L8.00001 0C7.64446 0 7.2889 0.266667 7.20001 0.622222L6.57779 2.31111L4.97779 1.51111C4.71112 1.33333 4.26668 1.42222 4.00001 1.68889L2.13335 3.55556C1.86668 3.82222 1.77779 4.26667 1.95557 4.53333L2.75557 6.13333L1.06668 6.75556C0.711125 6.84445 0.444458 7.2 0.444458 7.55556L0.444458 10.2222C0.444458 10.5778 0.711125 10.9333 1.06668 11.0222L2.75557 11.5556L1.95557 13.1556C1.77779 13.5111 1.86668 13.9556 2.13335 14.2222L4.00001 16.0889C4.26668 16.3556 4.71112 16.4444 5.06668 16.2667L6.66668 15.4667L7.20001 17.1556C7.2889 17.5111 7.64446 17.7778 8.00001 17.7778H10.6667C11.0222 17.7778 11.3778 17.5111 11.4667 17.1556L12 15.4667L13.6 16.2667C13.9556 16.4444 14.3111 16.3556 14.6667 16.0889L16.5333 14.2222C16.8 13.9556 16.8889 13.5111 16.7111 13.1556L15.9111 11.5556L17.6 11.0222C17.9556 10.9333 18.2222 10.5778 18.2222 10.2222V7.55556C18.2222 7.2 17.9556 6.84445 17.6 6.75556ZM9.33335 11.5556C7.82224 11.5556 6.66668 10.4 6.66668 8.88889C6.66668 7.37778 7.82224 6.22222 9.33335 6.22222C10.8445 6.22222 12 7.37778 12 8.88889C12 10.4 10.8445 11.5556 9.33335 11.5556Z" fill="#7E7BEC"/>
</svg>
