<svg width="22" height="23" viewBox="0 0 22 23" fill="none" xmlns="http://www.w3.org/2000/svg">
<path d="M11.3333 11.5556C13.2977 11.5556 14.8888 9.96446 14.8888 8.00001C14.8888 6.03557 13.2977 4.44446 11.3333 4.44446C9.36883 4.44446 7.77772 6.03557 7.77772 8.00001C7.77772 9.96446 9.36883 11.5556 11.3333 11.5556ZM11.3333 6.22224C12.3111 6.22224 13.1111 7.02224 13.1111 8.00001C13.1111 8.97779 12.3111 9.77779 11.3333 9.77779C10.3555 9.77779 9.5555 8.97779 9.5555 8.00001C9.5555 7.02224 10.3555 6.22224 11.3333 6.22224ZM11.3333 12.4445C8.95995 12.4445 4.22217 13.6356 4.22217 16V17.7778C4.22217 18.2667 4.62217 18.6667 5.11106 18.6667H17.5555C18.0444 18.6667 18.4444 18.2667 18.4444 17.7778V16C18.4444 13.6356 13.7066 12.4445 11.3333 12.4445ZM16.6666 16.8889H5.99995V16.0089C6.17772 15.3689 8.93328 14.2222 11.3333 14.2222C13.7333 14.2222 16.4888 15.3689 16.6666 16V16.8889Z" fill="#818191"/>
</svg>
