<svg width="19" height="19" viewBox="0 0 19 19" fill="none" xmlns="http://www.w3.org/2000/svg">
<path d="M17.9152 8.08888L9.91525 0.977771C9.55969 0.711104 9.11525 0.711104 8.75969 0.977771L0.759693 8.08888C0.404138 8.44444 0.315249 8.97777 0.670804 9.33333C1.02636 9.68888 1.55969 9.77777 1.91525 9.42222L2.18192 9.06666V17.6C2.18192 18.1333 2.53747 18.4889 3.0708 18.4889H15.5152C16.0486 18.4889 16.4041 18.1333 16.4041 17.6V9.06666L16.6708 9.33333C17.0264 9.68888 17.5597 9.59999 17.9152 9.24444C18.2708 8.97777 18.2708 8.35555 17.9152 8.08888ZM9.29303 8.7111C10.6264 8.7111 11.693 9.77777 11.693 11.1111C11.693 12.4444 10.6264 13.5111 9.29303 13.5111C7.95969 13.5111 6.89303 12.4444 6.89303 11.1111C6.89303 9.77777 7.95969 8.7111 9.29303 8.7111ZM4.84858 16.7111C4.84858 16.6222 4.84858 16.6222 4.93747 16.5333C6.89303 14.1333 10.4486 13.6889 12.8486 15.6444C13.2041 15.9111 13.4708 16.1778 13.7375 16.5333C13.7375 16.5333 13.7375 16.6222 13.8264 16.7111H4.84858Z" fill="white"/>
</svg>
